<svg width="77" height="99" viewBox="0 0 77 99" fill="none" xmlns="http://www.w3.org/2000/svg">
<path d="M0.909058 1C0.909058 0.447715 1.35677 0 1.90906 0H76C76.5523 0 77 0.447715 77 1V49.8535V98C77 98.5523 76.5523 99 76 99H1.90906C1.35677 99 0.909058 98.5523 0.909058 98L0.90909 49.8536L0.909058 1Z" fill="white"/>
<path d="M7.365 66.205C8.15833 65.575 8.52 65.2833 8.45 65.33C10.7367 63.44 12.5333 61.8883 13.84 60.675C15.17 59.4617 16.29 58.19 17.2 56.86C18.11 55.53 18.565 54.235 18.565 52.975C18.565 52.0183 18.3433 51.2717 17.9 50.735C17.4567 50.1983 16.7917 49.93 15.905 49.93C15.0183 49.93 14.3183 50.2683 13.805 50.945C13.315 51.5983 13.07 52.5317 13.07 53.745H7.295C7.34167 51.7617 7.76167 50.105 8.555 48.775C9.37167 47.445 10.4333 46.465 11.74 45.835C13.07 45.205 14.54 44.89 16.15 44.89C18.9267 44.89 21.015 45.6017 22.415 47.025C23.8383 48.4483 24.55 50.3033 24.55 52.59C24.55 55.0867 23.6983 57.4083 21.995 59.555C20.2917 61.6783 18.1217 63.755 15.485 65.785H24.935V70.65H7.365V66.205ZM45.5601 50.665H34.6401V55.495C35.1068 54.9817 35.7601 54.5617 36.6001 54.235C37.4401 53.9083 38.3501 53.745 39.3301 53.745C41.0801 53.745 42.5268 54.1417 43.6701 54.935C44.8368 55.7283 45.6885 56.755 46.2251 58.015C46.7618 59.275 47.0301 60.64 47.0301 62.11C47.0301 64.84 46.2601 67.01 44.7201 68.62C43.1801 70.2067 41.0101 71 38.2101 71C36.3435 71 34.7218 70.685 33.3451 70.055C31.9685 69.4017 30.9068 68.5033 30.1601 67.36C29.4135 66.2167 29.0051 64.8983 28.9351 63.405H34.7801C34.9201 64.1283 35.2585 64.735 35.7951 65.225C36.3318 65.6917 37.0668 65.925 38.0001 65.925C39.0968 65.925 39.9135 65.575 40.4501 64.875C40.9868 64.175 41.2551 63.2417 41.2551 62.075C41.2551 60.9317 40.9751 60.0567 40.4151 59.45C39.8551 58.8433 39.0385 58.54 37.9651 58.54C37.1718 58.54 36.5185 58.7383 36.0051 59.135C35.4918 59.5083 35.1535 60.01 34.9901 60.64H29.2151V45.415H45.5601V50.665ZM62.9688 52.345C62.7821 51.4817 62.4555 50.84 61.9888 50.42C61.5221 49.9767 60.8571 49.755 59.9938 49.755C58.6638 49.755 57.7071 50.3383 57.1238 51.505C56.5405 52.6483 56.2371 54.4683 56.2138 56.965C56.7271 56.1483 57.4621 55.5067 58.4188 55.04C59.3988 54.5733 60.4721 54.34 61.6388 54.34C63.9255 54.34 65.7571 55.0633 67.1338 56.51C68.5338 57.9567 69.2338 59.975 69.2338 62.565C69.2338 64.2683 68.8838 65.7617 68.1838 67.045C67.5071 68.3283 66.5038 69.3317 65.1738 70.055C63.8671 70.7783 62.3155 71.14 60.5188 71.14C56.9255 71.14 54.4288 70.02 53.0288 67.78C51.6288 65.5167 50.9288 62.2733 50.9288 58.05C50.9288 53.6167 51.6638 50.3267 53.1338 48.18C54.6271 46.01 57.0071 44.925 60.2738 44.925C62.0238 44.925 63.4938 45.275 64.6838 45.975C65.8971 46.6517 66.8071 47.55 67.4138 48.67C68.0438 49.79 68.4171 51.015 68.5338 52.345H62.9688ZM60.2038 59.065C59.2005 59.065 58.3605 59.3683 57.6838 59.975C57.0305 60.5583 56.7038 61.3983 56.7038 62.495C56.7038 63.615 57.0071 64.49 57.6138 65.12C58.2438 65.75 59.1305 66.065 60.2738 66.065C61.3005 66.065 62.1055 65.7617 62.6888 65.155C63.2955 64.525 63.5988 63.6733 63.5988 62.6C63.5988 61.5033 63.3071 60.64 62.7238 60.01C62.1405 59.38 61.3005 59.065 60.2038 59.065Z" fill="#13053A"/>
<path d="M6.645 86.765C6.645 85.745 6.875 84.83 7.335 84.02C7.795 83.2 8.42 82.56 9.21 82.1C10.01 81.64 10.895 81.41 11.865 81.41C13.005 81.41 14 81.685 14.85 82.235C15.7 82.785 16.32 83.565 16.71 84.575H15.075C14.785 83.945 14.365 83.46 13.815 83.12C13.275 82.78 12.625 82.61 11.865 82.61C11.135 82.61 10.48 82.78 9.9 83.12C9.32 83.46 8.865 83.945 8.535 84.575C8.205 85.195 8.04 85.925 8.04 86.765C8.04 87.595 8.205 88.325 8.535 88.955C8.865 89.575 9.32 90.055 9.9 90.395C10.48 90.735 11.135 90.905 11.865 90.905C12.625 90.905 13.275 90.74 13.815 90.41C14.365 90.07 14.785 89.585 15.075 88.955H16.71C16.32 89.955 15.7 90.73 14.85 91.28C14 91.82 13.005 92.09 11.865 92.09C10.895 92.09 10.01 91.865 9.21 91.415C8.42 90.955 7.795 90.32 7.335 89.51C6.875 88.7 6.645 87.785 6.645 86.765ZM25.4469 92L22.9569 87.725H21.3069V92H19.9419V81.545H23.3169C24.1069 81.545 24.7719 81.68 25.3119 81.95C25.8619 82.22 26.2719 82.585 26.5419 83.045C26.8119 83.505 26.9469 84.03 26.9469 84.62C26.9469 85.34 26.7369 85.975 26.3169 86.525C25.9069 87.075 25.2869 87.44 24.4569 87.62L27.0819 92H25.4469ZM21.3069 86.63H23.3169C24.0569 86.63 24.6119 86.45 24.9819 86.09C25.3519 85.72 25.5369 85.23 25.5369 84.62C25.5369 84 25.3519 83.52 24.9819 83.18C24.6219 82.84 24.0669 82.67 23.3169 82.67H21.3069V86.63ZM37.5879 81.545L34.1829 88.055V92H32.8179V88.055L29.3979 81.545H30.9129L33.4929 86.84L36.0729 81.545H37.5879ZM47.2177 84.605C47.2177 85.475 46.9177 86.2 46.3177 86.78C45.7277 87.35 44.8227 87.635 43.6027 87.635H41.5927V92H40.2277V81.545H43.6027C44.7827 81.545 45.6777 81.83 46.2877 82.4C46.9077 82.97 47.2177 83.705 47.2177 84.605ZM43.6027 86.51C44.3627 86.51 44.9227 86.345 45.2827 86.015C45.6427 85.685 45.8227 85.215 45.8227 84.605C45.8227 83.315 45.0827 82.67 43.6027 82.67H41.5927V86.51H43.6027ZM56.5492 81.545V82.655H53.6992V92H52.3342V82.655H49.4692V81.545H56.5492ZM64.1694 92.105C63.1994 92.105 62.3144 91.88 61.5144 91.43C60.7144 90.97 60.0794 90.335 59.6094 89.525C59.1494 88.705 58.9194 87.785 58.9194 86.765C58.9194 85.745 59.1494 84.83 59.6094 84.02C60.0794 83.2 60.7144 82.565 61.5144 82.115C62.3144 81.655 63.1994 81.425 64.1694 81.425C65.1494 81.425 66.0394 81.655 66.8394 82.115C67.6394 82.565 68.2694 83.195 68.7294 84.005C69.1894 84.815 69.4194 85.735 69.4194 86.765C69.4194 87.795 69.1894 88.715 68.7294 89.525C68.2694 90.335 67.6394 90.97 66.8394 91.43C66.0394 91.88 65.1494 92.105 64.1694 92.105ZM64.1694 90.92C64.8994 90.92 65.5544 90.75 66.1344 90.41C66.7244 90.07 67.1844 89.585 67.5144 88.955C67.8544 88.325 68.0244 87.595 68.0244 86.765C68.0244 85.925 67.8544 85.195 67.5144 84.575C67.1844 83.945 66.7294 83.46 66.1494 83.12C65.5694 82.78 64.9094 82.61 64.1694 82.61C63.4294 82.61 62.7694 82.78 62.1894 83.12C61.6094 83.46 61.1494 83.945 60.8094 84.575C60.4794 85.195 60.3144 85.925 60.3144 86.765C60.3144 87.595 60.4794 88.325 60.8094 88.955C61.1494 89.585 61.6094 90.07 62.1894 90.41C62.7794 90.75 63.4394 90.92 64.1694 90.92Z" fill="#13053A"/>
</svg>
